<svg width="32" height="46" viewBox="0 0 32 46" fill="none" xmlns="http://www.w3.org/2000/svg">
<path d="M18.25 0.5C21.7429 0.499872 25.0998 1.85352 27.6156 4.27655C30.1313 6.69957 31.61 10.0034 31.741 13.4938L31.75 14V32C31.7501 35.4929 30.3965 38.8498 27.9735 41.3656C25.5504 43.8813 22.2466 45.36 18.7563 45.491L18.25 45.5H13.75C10.2571 45.5001 6.90019 44.1465 4.38444 41.7235C1.86869 39.3004 0.389983 35.9966 0.259 32.5063L0.25 32V14C0.249872 10.5071 1.60352 7.15019 4.02655 4.63444C6.44957 2.11869 9.75335 0.639982 13.2437 0.509L13.75 0.5H18.25ZM18.25 5H13.75C11.441 5 9.22024 5.88748 7.54717 7.47888C5.87411 9.07028 4.8767 11.2438 4.76125 13.55L4.75 14V32C4.75 34.309 5.63748 36.5298 7.22888 38.2028C8.82028 39.8759 10.9938 40.8733 13.3 40.9888L13.75 41H18.25C20.559 41 22.7798 40.1125 24.4528 38.5211C26.1259 36.9297 27.1233 34.7562 27.2388 32.45L27.25 32V14C27.25 11.691 26.3625 9.47024 24.7711 7.79717C23.1797 6.12411 21.0062 5.1267 18.7 5.01125L18.25 5ZM16 9.5C16.5511 9.50007 17.083 9.7024 17.4948 10.0686C17.9067 10.4348 18.1698 10.9394 18.2343 11.4867L18.25 11.75V20.75C18.2494 21.3235 18.0298 21.8751 17.6361 22.2921C17.2424 22.7091 16.7044 22.96 16.1319 22.9936C15.5594 23.0272 14.9956 22.841 14.5559 22.4729C14.1161 22.1048 13.8335 21.5827 13.7657 21.0132L13.75 20.75V11.75C13.75 11.1533 13.9871 10.581 14.409 10.159C14.831 9.73705 15.4033 9.5 16 9.5Z" fill="#575757"/>
</svg>
